<svg width="129" height="128" viewBox="0 0 129 128" fill="none" xmlns="http://www.w3.org/2000/svg">
<path d="M93.7551 67.6614H64.0802V63.4282H93.7551C104.073 63.4282 112.465 55.0342 112.465 44.7167C112.465 39.7137 110.52 35.0132 106.99 31.4819C103.459 27.9513 98.7581 26.0065 93.7551 26.0065H79.4256V21.7728H93.7551C99.8891 21.7728 105.653 24.1582 109.983 28.4884C114.313 32.8187 116.699 38.5828 116.699 44.7163C116.699 57.3687 106.406 67.6614 93.7551 67.6614ZM49.264 105.061H102.264V109.295H49.264V105.061ZM34.0879 109.295H27.9925C15.3405 109.295 5.04785 99.002 5.04785 86.35C5.04785 80.2401 7.43203 74.4784 11.7603 70.126C16.0803 65.8049 21.844 63.4278 27.9925 63.4278H48.9044V67.661H27.9925C22.975 67.661 18.2744 69.5976 14.7577 73.1147C11.2272 76.665 9.28109 81.3663 9.28109 86.3496C9.28109 96.6671 17.675 105.061 27.9925 105.061H34.0882L34.0879 109.295ZM18.0441 21.7728H64.2498V26.0061H18.0441V21.7728Z" fill="#FF4B00"/>
<path d="M10.4556 32.5782C5.05788 32.5782 0.666504 28.1868 0.666504 22.7891C0.666504 17.3914 5.05788 13 10.4556 13C15.8533 13 20.2447 17.3914 20.2447 22.7891C20.2447 28.1868 15.8537 32.5782 10.4556 32.5782ZM10.4556 17.2328C7.39237 17.2328 4.89935 19.7255 4.89935 22.7891C4.89935 25.8527 7.39198 28.3454 10.4556 28.3454C13.5192 28.3454 16.0119 25.8527 16.0119 22.7891C16.0119 19.7255 13.5192 17.2328 10.4556 17.2328ZM71.8272 32.5679C66.9957 32.5679 62.8366 28.966 62.1548 24.1894C62.0803 23.7801 62.0483 23.2994 62.0483 22.7891C62.0483 17.3973 66.4354 13.0103 71.8272 13.0103C77.2304 13.0103 81.6269 17.3973 81.6269 22.7891C81.6269 23.2998 81.595 23.7801 81.509 24.2608C80.8382 28.966 76.6709 32.5679 71.8272 32.5679ZM71.8272 17.2431C68.7691 17.2431 66.2816 19.7306 66.2816 22.7887C66.2816 23.0407 66.291 23.2797 66.3332 23.5182C66.7311 26.2944 69.0885 28.3343 71.8272 28.3343C74.5785 28.3343 76.9441 26.294 77.3306 23.5896C77.3842 23.2797 77.3937 23.0407 77.3937 22.7887C77.3933 19.731 74.8963 17.2431 71.8272 17.2431ZM56.4814 74.2221C51.6488 74.2221 47.4909 70.6202 46.809 65.8447C46.7345 65.4334 46.7026 64.9527 46.7026 64.4444C46.7026 59.0404 51.0896 54.6439 56.4814 54.6439C61.8847 54.6439 66.2812 59.0404 66.2812 64.4444C66.2812 64.9527 66.2492 65.4334 66.1633 65.9149C65.4925 70.6202 61.3255 74.2221 56.4814 74.2221ZM56.4814 58.8767C53.4233 58.8767 50.9358 61.3749 50.9358 64.444C50.9358 64.696 50.9453 64.935 50.9875 65.1748C51.3854 67.9497 53.7427 69.9889 56.4814 69.9889C59.2327 69.9889 61.5984 67.9497 61.9848 65.2449C62.0385 64.935 62.0479 64.696 62.0479 64.444C62.0479 61.3745 59.551 58.8767 56.4814 58.8767ZM41.6862 115.878C36.8121 115.878 32.6439 112.261 31.9909 107.463C31.9176 107.067 31.8864 106.583 31.8864 106.099C31.8864 100.696 36.2829 96.2988 41.6862 96.2988C47.078 96.2988 51.465 100.697 51.465 106.099C51.465 106.583 51.4339 107.067 51.3471 107.551C50.7075 112.261 46.5476 115.878 41.6862 115.878ZM41.6862 100.531C38.6166 100.531 36.1197 103.03 36.1197 106.099C36.1197 106.335 36.1299 106.571 36.1713 106.806C36.5538 109.603 38.9195 111.645 41.6862 111.645C44.4414 111.645 46.798 109.603 47.1667 106.893C47.2215 106.571 47.2318 106.335 47.2318 106.099C47.2318 103.03 44.7443 100.531 41.6862 100.531ZM106.913 113.762C103.182 113.762 100.147 110.725 100.147 106.995C100.147 103.264 103.182 100.227 106.913 100.227C110.645 100.227 113.68 103.264 113.68 106.995C113.68 110.725 110.645 113.762 106.913 113.762ZM106.913 104.46C105.517 104.46 104.38 105.597 104.38 106.994C104.38 108.391 105.517 109.528 106.913 109.528C108.31 109.528 109.447 108.391 109.447 106.994C109.447 105.597 108.31 104.46 106.913 104.46ZM106.913 77.0736C106.352 77.0736 105.814 76.8506 105.417 76.4537C105.02 76.0568 104.797 75.5185 104.797 74.9572V72.3723C104.797 71.8109 105.02 71.2726 105.417 70.8757C105.814 70.4788 106.352 70.2558 106.913 70.2558C107.475 70.2558 108.013 70.4788 108.41 70.8757C108.807 71.2726 109.03 71.8109 109.03 72.3723V74.9572C109.03 75.5185 108.807 76.0568 108.41 76.4537C108.013 76.8506 107.475 77.0736 106.913 77.0736Z" fill="#FF4B00"/>
<path d="M106.913 104.46C106.635 104.46 106.36 104.405 106.103 104.299C105.847 104.193 105.613 104.037 105.417 103.84C105.22 103.644 105.064 103.411 104.958 103.154C104.852 102.897 104.797 102.622 104.797 102.344V88.3916C104.797 87.8303 105.02 87.2919 105.417 86.895C105.814 86.4981 106.352 86.2751 106.913 86.2751C107.475 86.2751 108.013 86.4981 108.41 86.895C108.807 87.2919 109.03 87.8303 109.03 88.3916V102.344C109.03 102.622 108.975 102.897 108.869 103.154C108.763 103.411 108.607 103.644 108.41 103.84C108.214 104.037 107.98 104.193 107.723 104.299C107.467 104.406 107.191 104.46 106.913 104.46Z" fill="#FF4B00"/>
<path d="M126.55 90.5081H106.913C106.635 90.5081 106.36 90.4533 106.103 90.3469C105.847 90.2406 105.613 90.0847 105.417 89.8882C105.22 89.6916 105.064 89.4583 104.958 89.2015C104.852 88.9448 104.797 88.6696 104.797 88.3916V74.9572C104.797 74.6793 104.852 74.4041 104.958 74.1473C105.064 73.8905 105.22 73.6572 105.417 73.4607C105.613 73.2642 105.847 73.1083 106.103 73.0019C106.36 72.8956 106.635 72.8408 106.913 72.8408H126.55C127.339 72.8408 128.061 73.2789 128.426 73.9777C128.605 74.3202 128.687 74.7052 128.662 75.0909C128.638 75.4767 128.508 75.8483 128.287 76.1655L124.457 81.6729L128.288 87.1834C128.509 87.5009 128.638 87.8728 128.662 88.2587C128.687 88.6445 128.605 89.0297 128.426 89.3724C128.246 89.7148 127.977 90.0016 127.646 90.2018C127.316 90.402 126.936 90.5079 126.55 90.5081ZM109.03 86.2748H122.501L120.14 82.8807C119.894 82.5259 119.762 82.1042 119.762 81.6723C119.762 81.2403 119.895 80.8188 120.141 80.4642L122.5 77.0733H109.031V86.2748H109.03Z" fill="#FF4B00"/>
</svg>
