<svg width="1477" height="356" viewBox="0 0 1477 356" fill="none" xmlns="http://www.w3.org/2000/svg">
<path d="M253.2 302H42.4001C38.9334 302 35.3333 300.667 31.6 298C27.8667 295.067 24.4 291.6 21.2 287.6C18.2667 283.333 15.7333 278.933 13.6 274.4C11.7333 269.867 10.8 265.733 10.8 262V122C10.8 118.533 11.7333 114.533 13.6 110C15.7333 105.2 18.2667 100.8 21.2 96.8C24.4 92.5333 27.8667 89.0667 31.6 86.4C35.3333 83.4667 38.9334 82 42.4001 82H253.2C256.667 82 260.267 83.4667 264 86.4C267.733 89.0667 271.067 92.5333 274 96.8C277.2 100.8 279.733 105.2 281.6 110C283.733 114.533 284.8 118.533 284.8 122V166.4H200.8V151.2C200.8 149.6 200.133 148 198.8 146.4C197.733 144.8 196.533 144 195.2 144H100.4C99.0667 144 97.7333 144.933 96.4 146.8C95.3333 148.4 94.8 149.867 94.8 151.2V232.8C94.8 234.4 95.3333 236 96.4 237.6C97.4667 239.2 98.8 240 100.4 240H195.2C196.533 240 197.733 239.2 198.8 237.6C200.133 236 200.8 234.4 200.8 232.8V217.6H284.8V262C284.8 265.733 283.733 269.867 281.6 274.4C279.733 278.933 277.2 283.333 274 287.6C271.067 291.6 267.733 295.067 264 298C260.267 300.667 256.667 302 253.2 302ZM329.703 302V124.8C328.903 123.733 326.903 121.6 323.703 118.4C320.77 115.2 317.57 111.6 314.103 107.6C310.636 103.333 307.303 98.9333 304.103 94.4C300.903 89.8667 298.77 85.7333 297.703 82H584.503V144H414.503V161.2H542.903V222.8H414.503V240H584.503V302H329.703ZM606.113 355.2V82H848.513C851.979 82 855.579 83.4667 859.313 86.4C863.046 89.0667 866.379 92.5333 869.313 96.8C872.513 100.8 875.046 105.2 876.913 110C879.046 114.533 880.113 118.533 880.113 122V190C880.113 198.533 879.446 206 878.113 212.4C877.046 218.8 874.779 224.133 871.313 228.4C867.846 232.667 862.913 236 856.513 238.4C850.379 240.533 842.379 241.733 832.513 242H828.513L891.713 302H792.913L709.313 223.6V184H790.513C794.246 184 796.113 181.6 796.113 176.8V151.2C796.113 149.6 795.446 148 794.113 146.4C793.046 144.8 791.846 144 790.513 144H690.113V302C689.846 303.333 687.979 305.6 684.513 308.8C681.046 312 676.646 315.467 671.313 319.2C666.246 323.2 660.513 327.333 654.112 331.6C647.979 335.867 641.846 339.733 635.713 343.2C629.579 346.667 623.846 349.467 618.513 351.6C613.179 354 609.046 355.2 606.113 355.2ZM925.016 302V124.8C924.216 123.733 922.216 121.6 919.016 118.4C916.082 115.2 912.882 111.6 909.416 107.6C905.949 103.333 902.616 98.9333 899.416 94.4C896.216 89.8667 894.082 85.7333 893.016 82H1179.82V144H1009.82V161.2H1138.22V222.8H1009.82V240H1179.82V302H925.016ZM1233.03 302C1229.56 302 1225.96 300.667 1222.23 298C1218.49 295.067 1215.03 291.6 1211.83 287.6C1208.89 283.333 1206.36 278.933 1204.23 274.4C1202.36 269.867 1201.43 265.733 1201.43 262V224.8H1285.43V233.2C1285.43 234.8 1285.96 236.4 1287.03 238C1288.36 239.6 1289.69 240.4 1291.03 240.4H1376.23L1218.23 189.2C1214.76 187.067 1211.29 184.4 1207.83 181.2C1204.63 178 1202.49 174.4 1201.43 170.4V122C1201.43 118.533 1202.36 114.533 1204.23 110C1206.36 105.2 1208.89 100.8 1211.83 96.8C1215.03 92.5333 1218.49 89.0667 1222.23 86.4C1225.96 83.4667 1229.56 82 1233.03 82H1433.83C1437.29 82 1440.89 83.4667 1444.63 86.4C1448.36 89.0667 1451.69 92.5333 1454.63 96.8C1457.83 100.8 1460.36 105.2 1462.23 110C1464.36 114.533 1465.43 118.533 1465.43 122V159.2H1381.43V150.8C1381.43 149.2 1380.76 147.6 1379.43 146C1378.36 144.4 1377.16 143.6 1375.83 143.6H1290.62L1448.63 194.8C1452.89 197.467 1456.49 200.267 1459.43 203.2C1462.36 206.133 1464.36 209.6 1465.43 213.6V262C1465.43 265.733 1464.36 269.867 1462.23 274.4C1460.36 278.933 1457.83 283.333 1454.63 287.6C1451.69 291.6 1448.36 295.067 1444.63 298C1440.89 300.667 1437.29 302 1433.83 302H1233.03Z" fill="black"/>
</svg>
