<svg width="132" height="132" viewBox="0 0 132 132" fill="none" xmlns="http://www.w3.org/2000/svg">
<path d="M29.0861 88.5705H27.5197C25.4706 88.5705 23.5054 89.3846 22.0564 90.8336L18.2481 94.6419M28.9159 44.0072H27.5195C25.4703 44.0072 23.5051 43.1931 22.0562 41.7442L18.2471 37.9351M28.9159 66.289H12.7544" stroke="#FF4B00" stroke-width="4" stroke-miterlimit="10" stroke-linecap="round" stroke-linejoin="round"/>
<path d="M15.1617 101.746C17.3807 101.746 19.1795 99.9472 19.1795 97.7283C19.1795 95.5094 17.3807 93.7106 15.1617 93.7106C12.9428 93.7106 11.144 95.5094 11.144 97.7283C11.144 99.9472 12.9428 101.746 15.1617 101.746Z" stroke="#FF4B00" stroke-width="4" stroke-miterlimit="10" stroke-linecap="round" stroke-linejoin="round"/>
<path d="M7.15091 71.4399C9.99567 71.4399 12.3018 69.1337 12.3018 66.289C12.3018 63.4442 9.99567 61.1381 7.15091 61.1381C4.30614 61.1381 2 63.4442 2 66.289C2 69.1337 4.30614 71.4399 7.15091 71.4399Z" stroke="#FF4B00" stroke-width="4" stroke-miterlimit="10" stroke-linecap="round" stroke-linejoin="round"/>
<path d="M15.1617 38.8673C17.3807 38.8673 19.1795 37.0685 19.1795 34.8496C19.1795 32.6307 17.3807 30.8319 15.1617 30.8319C12.9428 30.8319 11.144 32.6307 11.144 34.8496C11.144 37.0685 12.9428 38.8673 15.1617 38.8673Z" stroke="#FF4B00" stroke-width="4" stroke-miterlimit="10" stroke-linecap="round" stroke-linejoin="round"/>
<path d="M103.004 44.0073H104.48C106.529 44.0073 108.495 43.1932 109.944 41.7443L113.734 37.9542M102.833 88.5706H104.48C106.529 88.5707 108.495 89.3847 109.944 90.8337L113.588 94.4779M103.004 66.2891H119.165" stroke="#FF4B00" stroke-width="4" stroke-miterlimit="10" stroke-linecap="round" stroke-linejoin="round"/>
<path d="M116.838 38.8673C119.057 38.8673 120.856 37.0685 120.856 34.8496C120.856 32.6307 119.057 30.8319 116.838 30.8319C114.619 30.8319 112.82 32.6307 112.82 34.8496C112.82 37.0685 114.619 38.8673 116.838 38.8673Z" stroke="#FF4B00" stroke-width="4" stroke-miterlimit="10" stroke-linecap="round" stroke-linejoin="round"/>
<path d="M124.849 71.4399C127.694 71.4399 130 69.1337 130 66.289C130 63.4442 127.694 61.1381 124.849 61.1381C122.004 61.1381 119.698 63.4442 119.698 66.289C119.698 69.1337 122.004 71.4399 124.849 71.4399Z" stroke="#FF4B00" stroke-width="4" stroke-miterlimit="10" stroke-linecap="round" stroke-linejoin="round"/>
<path d="M116.838 101.746C119.057 101.746 120.856 99.9472 120.856 97.7283C120.856 95.5094 119.057 93.7106 116.838 93.7106C114.619 93.7106 112.82 95.5094 112.82 97.7283C112.82 99.9472 114.619 101.746 116.838 101.746Z" stroke="#FF4B00" stroke-width="4" stroke-miterlimit="10" stroke-linecap="round" stroke-linejoin="round"/>
<path d="M77.9796 103.864V104.769C77.9797 106.819 78.7937 108.784 80.2427 110.233L83.8434 113.833M54.0202 103.694V104.769C54.0202 106.819 53.2061 108.784 51.7572 110.233L48.0078 113.982M65.9999 103.694V119.26" stroke="#FF4B00" stroke-width="4" stroke-miterlimit="10" stroke-linecap="round" stroke-linejoin="round"/>
<path d="M87.1373 121.145C89.3563 121.145 91.155 119.346 91.155 117.127C91.155 114.908 89.3563 113.11 87.1373 113.11C84.9184 113.11 83.1196 114.908 83.1196 117.127C83.1196 119.346 84.9184 121.145 87.1373 121.145Z" stroke="#FF4B00" stroke-width="4" stroke-miterlimit="10" stroke-linecap="round" stroke-linejoin="round"/>
<path d="M66 130C68.8448 130 71.1509 127.694 71.1509 124.849C71.1509 122.004 68.8448 119.698 66 119.698C63.1553 119.698 60.8491 122.004 60.8491 124.849C60.8491 127.694 63.1553 130 66 130Z" stroke="#FF4B00" stroke-width="4" stroke-miterlimit="10" stroke-linecap="round" stroke-linejoin="round"/>
<path d="M44.8624 121.145C47.0814 121.145 48.8801 119.346 48.8801 117.127C48.8801 114.908 47.0814 113.11 44.8624 113.11C42.6435 113.11 40.8447 114.908 40.8447 117.127C40.8447 119.346 42.6435 121.145 44.8624 121.145Z" stroke="#FF4B00" stroke-width="4" stroke-miterlimit="10" stroke-linecap="round" stroke-linejoin="round"/>
<path d="M54.0202 28.2113V27.8085C54.0201 25.7594 53.2061 23.7942 51.7571 22.3452L47.9009 18.489M77.9796 28.4148V27.8083C77.9796 25.7591 78.7937 23.7939 80.2426 22.3449L83.9737 18.6139M65.9999 27.9046V12.8912" stroke="#FF4B00" stroke-width="4" stroke-miterlimit="10" stroke-linecap="round" stroke-linejoin="round"/>
<path d="M44.8624 19.468C47.0814 19.468 48.8801 17.6692 48.8801 15.4503C48.8801 13.2314 47.0814 11.4326 44.8624 11.4326C42.6435 11.4326 40.8447 13.2314 40.8447 15.4503C40.8447 17.6692 42.6435 19.468 44.8624 19.468Z" stroke="#FF4B00" stroke-width="4" stroke-miterlimit="10" stroke-linecap="round" stroke-linejoin="round"/>
<path d="M66 12.3018C68.8448 12.3018 71.1509 9.99567 71.1509 7.15091C71.1509 4.30614 68.8448 2 66 2C63.1553 2 60.8491 4.30614 60.8491 7.15091C60.8491 9.99567 63.1553 12.3018 66 12.3018Z" stroke="#FF4B00" stroke-width="4" stroke-miterlimit="10" stroke-linecap="round" stroke-linejoin="round"/>
<path d="M87.1373 19.468C89.3563 19.468 91.155 17.6692 91.155 15.4503C91.155 13.2314 89.3563 11.4326 87.1373 11.4326C84.9184 11.4326 83.1196 13.2314 83.1196 15.4503C83.1196 17.6692 84.9184 19.468 87.1373 19.468Z" stroke="#FF4B00" stroke-width="4" stroke-miterlimit="10" stroke-linecap="round" stroke-linejoin="round"/>
<path d="M45.3527 28.6302H98.4148C100.606 28.6302 102.384 30.4073 102.384 32.599V44.9148C102.384 47.1065 100.606 48.8836 98.4148 48.8836H59.8963M36.3386 28.6302H33.5855C31.3938 28.6302 29.6167 30.4073 29.6167 32.599V44.9148C29.6167 47.1065 31.3938 48.8836 33.5855 48.8836H50.8822M47.1607 103.37H98.4148C100.606 103.37 102.384 101.593 102.384 99.4011V87.0853C102.384 84.8936 100.606 83.1165 98.4148 83.1165H33.5855C31.3938 83.1165 29.6167 84.8936 29.6167 87.0853V99.4011C29.6167 101.593 31.3938 103.37 33.5855 103.37H38.1466M96.9362 49.34V55.4219M35.064 55.4219V49.51M96.9362 76.7722V82.6838M35.064 82.8963V76.7722M58.8924 38.7574H62.1823M68.8148 38.7574H72.1047M78.7373 38.7574H93.8542M58.8924 93.2427H62.1823M68.8148 93.2427H72.1047M78.7373 93.2427H93.8542M91.6439 76.1267H98.4148C100.606 76.1267 102.384 74.3497 102.384 72.158V59.8422C102.384 57.6504 100.606 55.8734 98.4148 55.8734H33.5855C31.3938 55.8734 29.6167 57.6504 29.6167 59.8422V72.158C29.6167 74.3497 31.3938 76.1267 33.5855 76.1267H82.6298M73.1078 66.0001H69.818M63.1854 66.0001H59.8955M53.263 66.0001H38.1461" stroke="#FF4B00" stroke-width="4" stroke-miterlimit="10" stroke-linecap="round" stroke-linejoin="round"/>
</svg>
