<svg width="128" height="128" viewBox="0 0 128 128" fill="none" xmlns="http://www.w3.org/2000/svg">
<mask id="mask0_40000004_436" style="mask-type:luminance" maskUnits="userSpaceOnUse" x="0" y="0" width="128" height="128">
<path d="M125.75 125.75V2.25H2.25V125.75H125.75Z" fill="white" stroke="white" stroke-width="4.5"/>
</mask>
<g mask="url(#mask0_40000004_436)">
<path d="M103.123 114.766V126.125H24.8779V75.0247C24.8779 70.5985 28.4664 67.0103 32.8929 67.0103H95.1077C99.5342 67.0103 103.123 70.5985 103.123 75.0247V106.08" stroke="#FF4B00" stroke-width="4.5" stroke-miterlimit="10" stroke-linecap="round" stroke-linejoin="round"/>
<path d="M64 106.676C58.7605 106.676 54.513 102.428 54.513 97.1888C54.513 91.949 58.7605 87.7018 64 87.7018C69.2395 87.7018 73.4869 91.949 73.4869 97.1888C73.4869 102.428 69.2395 106.676 64 106.676ZM83.0492 92.9923C81.9477 92.9923 80.9607 92.3038 80.5904 91.266C80.3909 90.7066 80.1631 90.1576 79.9079 89.6213C79.4414 88.642 79.6482 87.475 80.4152 86.708L80.4372 86.686C81.4424 85.681 81.4424 84.0513 80.4372 83.046L78.1425 80.7515C77.1375 79.7463 75.5077 79.7463 74.5027 80.7515L74.4804 80.7735C73.7134 81.5403 72.5467 81.747 71.5672 81.2808C71.0309 81.0255 70.4819 80.7976 69.9225 80.598C68.885 80.228 68.1965 79.2408 68.1965 78.1393C68.1965 76.7178 67.0442 75.5655 65.6224 75.5655H62.3774C60.9557 75.5655 59.8035 76.7178 59.8035 78.1393C59.8035 79.2408 59.115 80.228 58.0775 80.598C57.518 80.7976 56.969 81.0255 56.4327 81.2808C55.4532 81.747 54.2865 81.5403 53.5192 80.7735L53.4972 80.7515C52.4922 79.7463 50.8624 79.7463 49.8574 80.7515L47.5627 83.046C46.5575 84.0513 46.5575 85.681 47.5627 86.686L47.5847 86.708C48.3517 87.475 48.5585 88.642 48.0922 89.6213C47.8368 90.1576 47.6089 90.7065 47.4095 91.266C47.0392 92.3038 46.0522 92.9923 44.9507 92.9923C43.5292 92.9923 42.3767 94.1445 42.3767 95.566V98.8113C42.3767 100.233 43.5292 101.385 44.9507 101.385C46.0522 101.385 47.0392 102.074 47.4095 103.111C47.6089 103.671 47.8367 104.22 48.0922 104.756C48.5585 105.735 48.3517 106.902 47.5847 107.669L47.5627 107.691C46.5575 108.697 46.5575 110.326 47.5627 111.331L49.8574 113.626C50.8624 114.631 52.4922 114.631 53.4972 113.626L53.5192 113.604C54.2865 112.837 55.4532 112.63 56.4327 113.097C56.969 113.352 57.518 113.58 58.0775 113.779C59.115 114.149 59.8035 115.137 59.8035 116.238C59.8035 117.66 60.9557 118.812 62.3774 118.812H65.6224C67.0442 118.812 68.1965 117.66 68.1965 116.238C68.1965 115.137 68.885 114.149 69.9225 113.779C70.4819 113.58 71.0309 113.352 71.5672 113.097C72.5467 112.63 73.7134 112.837 74.4804 113.604L74.5027 113.626C75.5077 114.631 77.1375 114.631 78.1425 113.626L80.4372 111.331C81.4424 110.326 81.4424 108.697 80.4372 107.691L80.4152 107.669C79.6482 106.902 79.4414 105.735 79.9079 104.756C80.1632 104.219 80.391 103.671 80.5904 103.111C80.9607 102.074 81.9477 101.385 83.0492 101.385C84.4707 101.385 85.6232 100.233 85.6232 98.8113V95.566C85.6232 94.1445 84.4707 92.9923 83.0492 92.9923ZM24.8775 95.3138H9.64045C9.33499 95.3138 9.03251 95.2537 8.75029 95.1368C8.46807 95.0199 8.21165 94.8486 7.99565 94.6326C7.77965 94.4166 7.60832 94.1601 7.49144 93.8779C7.37456 93.5957 7.31442 93.2932 7.31445 92.9878V82.9733C7.31445 78.5965 10.8625 75.0483 15.2392 75.0483H24.8775V95.3138ZM103.122 95.3138H118.359C118.665 95.3138 118.967 95.2537 119.25 95.1368C119.532 95.0199 119.788 94.8486 120.004 94.6326C120.22 94.4166 120.392 94.1601 120.508 93.8779C120.625 93.5957 120.685 93.2932 120.685 92.9878V82.9733C120.685 78.5965 117.137 75.0483 112.761 75.0483H103.122V95.3138Z" stroke="#FF4B00" stroke-width="4.5" stroke-miterlimit="10" stroke-linecap="round" stroke-linejoin="round"/>
<path d="M11.2554 95.3138V123.436C11.2554 124.921 12.4594 126.125 13.9446 126.125H24.8776M103.122 126.125H114.055C115.541 126.125 116.745 124.921 116.745 123.436V95.3138M57.1906 16.1425H86.8384C91.3501 16.1425 95.0074 19.8 95.0074 24.3118V48.1148C95.0074 52.6265 91.3501 56.2838 86.8384 56.2838H41.1616C36.6499 56.2838 32.9926 52.6265 32.9926 48.1148V24.3118C32.9926 19.8 36.6499 16.1425 41.1616 16.1425H48.4254" stroke="#FF4B00" stroke-width="4.5" stroke-miterlimit="10" stroke-linecap="round" stroke-linejoin="round"/>
<path d="M80.9824 67.0103V56.284M47.0174 56.284V67.0103M32.9924 25.7968L23.9491 28.1578C23.3563 28.3125 22.8316 28.6595 22.4571 29.1443C22.0825 29.6292 21.8794 30.2246 21.8794 30.8373V39.772C21.8794 41.032 22.7299 42.1335 23.9491 42.4518L32.9924 44.8128M95.0074 44.813L104.051 42.452C104.643 42.2972 105.168 41.9501 105.543 41.4652C105.917 40.9803 106.12 40.3849 106.12 39.7723V30.8375C106.12 29.5775 105.27 28.476 104.051 28.158L95.0074 25.797M41.0244 36.2133C41.0244 30.954 45.2879 26.6905 50.5471 26.6905H77.4529C82.7122 26.6905 86.9756 30.954 86.9756 36.2133C86.9756 41.4723 82.7122 45.7358 77.4529 45.7358H50.5471C45.2879 45.7358 41.0244 41.4723 41.0244 36.2133ZM25.9199 15.557C23.8584 15.557 22.1869 13.8858 22.1869 11.8243V5.6075C22.1869 3.546 23.8584 1.87476 25.9199 1.87476C27.9814 1.87476 29.6526 3.546 29.6526 5.6075V11.8243C29.6526 13.8858 27.9814 15.557 25.9199 15.557Z" stroke="#FF4B00" stroke-width="4.5" stroke-miterlimit="10" stroke-linecap="round" stroke-linejoin="round"/>
</g>
</svg>
