<svg width="128" height="128" viewBox="0 0 128 128" fill="none" xmlns="http://www.w3.org/2000/svg">
<path d="M125.935 49.5484H115.613V6.19355C115.613 4.55092 114.96 2.97556 113.799 1.81405C112.637 0.652533 111.062 0 109.419 0H6.19355C4.55092 0 2.97556 0.652533 1.81405 1.81405C0.652533 2.97556 0 4.55092 0 6.19355V92.9032C0 94.5459 0.652533 96.1212 1.81405 97.2827C2.97556 98.4442 4.55092 99.0968 6.19355 99.0968H33.0323V125.935C33.0323 126.483 33.2498 127.008 33.6369 127.395C34.0241 127.782 34.5492 128 35.0968 128H51.6129C52.1604 128 52.6856 127.782 53.0727 127.395C53.4599 127.008 53.6774 126.483 53.6774 125.935V99.0968H57.8064V125.935C57.8064 126.483 58.024 127.008 58.4111 127.395C58.7983 127.782 59.3234 128 59.871 128H76.3871C76.9346 128 77.4598 127.782 77.8469 127.395C78.2341 127.008 78.4516 126.483 78.4516 125.935V99.0968H82.5806V125.935C82.5806 126.483 82.7981 127.008 83.1853 127.395C83.5725 127.782 84.0976 128 84.6452 128H101.161C101.709 128 102.234 127.782 102.621 127.395C103.008 127.008 103.226 126.483 103.226 125.935V99.0968H107.355V125.935C107.355 126.483 107.572 127.008 107.96 127.395C108.347 127.782 108.872 128 109.419 128H125.935C126.483 128 127.008 127.782 127.395 127.395C127.782 127.008 128 126.483 128 125.935V51.6129C128 51.0654 127.782 50.5402 127.395 50.1531C127.008 49.7659 126.483 49.5484 125.935 49.5484ZM6.19355 4.12903H109.419C109.967 4.12903 110.492 4.34654 110.879 4.73371C111.266 5.12089 111.484 5.646 111.484 6.19355V16.5161H4.12903V6.19355C4.12903 5.646 4.34654 5.12089 4.73371 4.73371C5.12089 4.34654 5.646 4.12903 6.19355 4.12903ZM49.5484 123.871H37.1613V90.8387H49.5484V123.871ZM74.3226 123.871H61.9355V78.4516H74.3226V123.871ZM99.0968 123.871H86.7097V66.0645H99.0968V123.871ZM107.355 51.6129V94.9677H103.226V64C103.226 63.4525 103.008 62.9273 102.621 62.5402C102.234 62.153 101.709 61.9355 101.161 61.9355H84.6452C84.0976 61.9355 83.5725 62.153 83.1853 62.5402C82.7981 62.9273 82.5806 63.4525 82.5806 64V94.9677H78.4516V76.3871C78.4516 75.8396 78.2341 75.3144 77.8469 74.9273C77.4598 74.5401 76.9346 74.3226 76.3871 74.3226H59.871C59.3234 74.3226 58.7983 74.5401 58.4111 74.9273C58.024 75.3144 57.8064 75.8396 57.8064 76.3871V94.9677H53.6774V88.7742C53.6774 88.2266 53.4599 87.7015 53.0727 87.3144C52.6856 86.9272 52.1604 86.7097 51.6129 86.7097H35.0968C34.5492 86.7097 34.0241 86.9272 33.6369 87.3144C33.2498 87.7015 33.0323 88.2266 33.0323 88.7742V94.9677H6.19355C5.646 94.9677 5.12089 94.7502 4.73371 94.3631C4.34654 93.9759 4.12903 93.4508 4.12903 92.9032V20.6452H111.484V49.5484H109.419C108.872 49.5484 108.347 49.7659 107.96 50.1531C107.572 50.5402 107.355 51.0654 107.355 51.6129ZM123.871 123.871H111.484V53.6774H123.871V123.871Z" fill="#FF4B00"/>
<path d="M8.25782 8.25806H20.6449V12.3871H8.25782V8.25806ZM24.774 8.25806H28.903V12.3871H24.774V8.25806ZM101.161 24.7742H72.2578C71.7103 24.7742 71.1852 24.9917 70.798 25.3789C70.4108 25.766 70.1933 26.2912 70.1933 26.8387V35.0968C70.1933 35.6443 70.4108 36.1694 70.798 36.5566C71.1852 36.9438 71.7103 37.1613 72.2578 37.1613H101.161C101.709 37.1613 102.234 36.9438 102.621 36.5566C103.008 36.1694 103.226 35.6443 103.226 35.0968V26.8387C103.226 26.2912 103.008 25.766 102.621 25.3789C102.234 24.9917 101.709 24.7742 101.161 24.7742ZM99.0965 33.0322H74.3223V28.9032H99.0965V33.0322ZM53.6772 47.4839C53.6772 42.9923 52.3453 38.6016 49.8499 34.867C47.3545 31.1325 43.8078 28.2217 39.6581 26.5029C35.5085 24.784 30.9423 24.3343 26.5371 25.2105C22.1318 26.0868 18.0853 28.2497 14.9093 31.4257C11.7333 34.6017 9.57044 38.6482 8.69418 43.0534C7.81792 47.4587 8.26765 52.0248 9.98649 56.1745C11.7053 60.3241 14.6161 63.8709 18.3507 66.3663C22.0853 68.8616 26.4759 70.1935 30.9675 70.1935C31.515 70.1935 32.0402 69.976 32.4273 69.5889C32.8145 69.2017 33.032 68.6766 33.032 68.129V49.5484H51.6127C52.1602 49.5484 52.6853 49.3309 53.0725 48.9437C53.4597 48.5565 53.6772 48.0314 53.6772 47.4839ZM12.3869 47.4839C12.3828 43.7567 13.507 40.1156 15.6116 37.0395L28.903 48.4315V65.9489C24.3631 65.4358 20.1707 63.2703 17.1248 59.865C14.0789 56.4597 12.3924 52.0526 12.3869 47.4839ZM31.7293 45.4193L18.31 33.9179C20.8228 31.5618 23.9422 29.9521 27.3184 29.269C30.6947 28.586 34.1945 28.8567 37.4256 30.0507C40.6567 31.2448 43.4914 33.315 45.6121 36.0295C47.7328 38.7439 49.0557 41.9954 49.4325 45.4193H31.7293Z" fill="#FF4B00"/>
<path d="M59.8708 53.6774H39.2256C38.6781 53.6774 38.153 53.8949 37.7658 54.2821C37.3786 54.6692 37.1611 55.1944 37.1611 55.7419V76.3871C37.1611 76.9346 37.3786 77.4597 37.7658 77.8469C38.153 78.2341 38.6781 78.4516 39.2256 78.4516C45.2464 78.4445 51.0186 76.0496 55.276 71.7922C59.5333 67.5349 61.9282 61.7627 61.9353 55.7419C61.9353 55.1944 61.7178 54.6692 61.3306 54.2821C60.9435 53.8949 60.4184 53.6774 59.8708 53.6774ZM41.2902 74.2069V57.8064H57.6907C57.2165 61.9927 55.3362 65.8943 52.3571 68.8734C49.378 71.8524 45.4764 73.7328 41.2902 74.2069ZM72.2579 41.2903H92.9031V45.4193H72.2579V41.2903ZM97.0321 41.2903H101.161V45.4193H97.0321V41.2903ZM72.2579 49.5483H92.9031V53.6774H72.2579V49.5483ZM97.0321 49.5483H101.161V53.6774H97.0321V49.5483Z" fill="#FF4B00"/>
</svg>
