<svg width="366" height="195" viewBox="0 0 366 195" fill="none" xmlns="http://www.w3.org/2000/svg">
<rect x="146.225" y="95.7295" width="83.5878" height="39.5247" rx="5" stroke="#D9D9D9" stroke-width="2"/>
<path d="M51.5943 91.5253L19.7247 76.1078M51.5943 91.5253H67.6689M51.5943 91.5253L42.928 109.045M327.797 91.5253L343.085 76.1078M327.797 91.5253H234.006M327.797 91.5253L336.883 109.325M19.7247 76.1078L1.27393 24.3893L35.7993 11.7518M19.7247 76.1078L60.4004 76.1078M343.085 76.1078H241.694M343.085 76.1078L350.173 68.9597M35.7993 11.7518L64.454 1.26319C119.855 -0.082346 176.862 3.87372 227.157 9.87762M35.7993 11.7518L60.4004 76.1078M60.4004 76.1078L67.6689 91.5253M60.4004 76.1078L232.468 17.5216M60.4004 76.1078L241.694 76.1078M67.6689 91.5253H142.031M232.468 17.5216L227.157 9.87762M232.468 17.5216L256.65 34.7611M227.157 9.87762C286.881 17.0072 337.139 27.0244 364 34.4808L352.119 66.9976L350.173 68.9597M256.65 34.7611L241.694 76.1078M256.65 34.7611L350.173 68.9597M241.694 76.1078L227.157 91.5253M227.157 91.5253H234.006M227.157 91.5253H142.031M119.247 165.529H142.031M260.284 165.529H234.006M234.006 91.5253V139.459M234.006 165.529H142.031M234.006 165.529V139.459M142.031 165.529V139.459M142.031 91.5253V139.459M142.031 139.459H234.006" stroke="#D9D9D9" stroke-width="2"/>
<ellipse cx="304.035" cy="144.085" rx="23.3431" ry="23.4065" stroke="#D9D9D9" stroke-width="2"/>
<ellipse cx="304.314" cy="144.365" rx="11.6017" ry="11.6332" stroke="#D9D9D9" stroke-width="2"/>
<ellipse cx="304.034" cy="144.085" rx="19.9884" ry="20.0427" stroke="#D9D9D9" stroke-width="2"/>
<ellipse cx="75.077" cy="144.085" rx="23.3431" ry="23.4065" stroke="#D9D9D9" stroke-width="2"/>
<ellipse cx="75.3575" cy="144.365" rx="11.6017" ry="11.6332" stroke="#D9D9D9" stroke-width="2"/>
<ellipse cx="151.117" cy="130.069" rx="2.09668" ry="2.10238" stroke="#D9D9D9" stroke-width="2"/>
<ellipse cx="151.117" cy="100.916" rx="2.09668" ry="2.10238" stroke="#D9D9D9" stroke-width="2"/>
<ellipse cx="224.64" cy="100.916" rx="2.09668" ry="2.10238" stroke="#D9D9D9" stroke-width="2"/>
<ellipse cx="224.64" cy="130.069" rx="2.09668" ry="2.10238" stroke="#D9D9D9" stroke-width="2"/>
<ellipse cx="75.0768" cy="144.085" rx="19.9884" ry="20.0427" stroke="#D9D9D9" stroke-width="2"/>
<path d="M67.3888 95.5898L62.7761 104.7L54.9485 108.484L56.2065 100.495L52.8518 100.355L51.1744 110.727L44.8844 116.473L43.4866 108.625L40.5512 109.606L42.2286 119.977L37.8954 127.266L34.1214 120.258L31.6054 122.08L36.4976 131.611L34.5407 139.88L28.9496 134.274L26.9927 136.796L34.5407 144.365L35.3794 152.915L28.1109 149.13L27.1325 152.074L36.4976 157.119L39.8523 164.828L32.1645 163.707L31.8849 166.931L42.2286 168.612L47.9595 174.92L39.9921 176.321L40.9706 179.264L51.454 177.723L58.7225 181.927L51.454 185.712L53.4109 188.235L62.9159 183.469L71.1628 185.291L65.4319 191.038L68.0877 193L75.496 185.431L84.0225 184.59L80.3882 191.739L83.3236 192.72L88.0761 183.469L95.9037 179.965L94.6457 187.954H97.8606L99.5379 177.583L105.968 171.976L107.366 179.825L110.161 178.844L108.484 168.472L112.817 161.044L116.591 168.332L119.387 166.51L114.494 156.839L116.311 148.57L121.903 154.176L123.859 151.653L116.311 144.225L115.613 135.535L122.601 139.039L123.72 136.236L114.354 131.19L110.86 123.481L118.827 124.743V121.519L108.624 119.977L103.032 113.53L110.72 112.269L109.742 109.325L99.3982 110.727L92.4092 106.522L99.1186 102.738L97.3015 100.215L88.0761 104.84L79.8291 103.158L85.1407 97.5521L82.6247 95.5898L75.3562 102.878L66.9694 103.719L70.4639 96.571L67.3888 95.5898Z" stroke="#D9D9D9" stroke-width="2"/>
<path d="M296.627 95.5898L292.014 104.7L284.187 108.484L285.445 100.495L282.09 100.355L280.413 110.727L274.123 116.473L272.725 108.625L269.79 109.606L271.467 119.977L267.134 127.266L263.36 120.258L260.844 122.08L265.736 131.611L263.779 139.88L258.188 134.274L256.231 136.796L263.779 144.365L264.618 152.915L257.349 149.13L256.371 152.074L265.736 157.119L269.091 164.828L261.403 163.707L261.123 166.931L271.467 168.612L277.198 174.92L269.23 176.321L270.209 179.264L280.692 177.723L287.961 181.927L280.692 185.712L282.649 188.235L292.154 183.469L300.401 185.291L294.67 191.038L297.326 193L304.734 185.431L313.261 184.59L309.627 191.739L312.562 192.72L317.314 183.469L325.142 179.965L323.884 187.954H327.099L328.776 177.583L335.206 171.976L336.604 179.825L339.399 178.844L337.722 168.472L342.055 161.044L345.829 168.332L348.625 166.51L343.733 156.839L345.55 148.57L351.141 154.176L353.098 151.653L345.55 144.225L344.851 135.535L351.84 139.039L352.958 136.236L343.593 131.19L340.098 123.481L348.066 124.743V121.519L337.862 119.977L332.271 113.53L339.959 112.269L338.98 109.325L328.636 110.727L321.647 106.522L328.357 102.738L326.54 100.215L317.314 104.84L309.067 103.158L314.379 97.5521L311.863 95.5898L304.594 102.878L296.208 103.719L299.702 96.571L296.627 95.5898Z" stroke="#D9D9D9" stroke-width="2"/>
<path d="M35.7991 123.061L41.5301 115.072M44.0461 111.989L52.0135 105.822M55.7875 103.719L64.7334 100.776M68.9267 99.6548L78.851 99.3745M83.0444 99.6548L92.2698 102.598M96.603 104.42L104.291 110.027M107.785 112.97L113.237 120.538M115.892 124.183L118.828 133.573M119.666 137.638L119.806 147.729M119.527 151.934L116.591 161.184M114.914 165.389L109.323 173.378M106.527 176.602L98.8394 182.488M95.0654 184.871L85.84 188.095M81.9262 188.936L72.1416 189.076M67.6687 188.796L58.5831 185.852M54.3897 184.17L46.5621 178.564M43.3472 175.761L37.3367 167.912M35.24 164.128L31.8853 154.737M31.0466 150.532L30.7671 140.721M31.0466 136.376L34.1218 127.126" stroke="#D9D9D9" stroke-width="2"/>
<path d="M264.757 123.061L270.488 115.072M273.004 111.989L280.971 105.822M284.745 103.719L293.691 100.776M297.884 99.6548L307.809 99.3745M312.002 99.6548L321.227 102.598M325.56 104.42L333.248 110.027M336.743 112.97L342.194 120.538M344.85 124.183L347.785 133.573M348.624 137.638L348.764 147.729M348.484 151.934L345.549 161.184M343.872 165.389L338.28 173.378M335.485 176.602L327.797 182.488M324.023 184.871L314.797 188.095M310.884 188.936L301.099 189.076M296.626 188.796L287.541 185.852M283.347 184.17L275.52 178.564M272.305 175.761L266.294 167.912M264.198 164.128L260.843 154.737M260.004 150.532L259.725 140.721M260.004 136.376L263.079 127.126" stroke="#D9D9D9" stroke-width="2"/>
<path d="M348.764 139.178H357.57C361.903 139.178 361.903 131.189 357.57 131.189H347.087" stroke="#D9D9D9" stroke-width="2"/>
<path d="M29.2285 139.178H26.5378H22.1347C17.8016 139.178 17.8016 131.189 22.1347 131.189H32.6182" stroke="#D9D9D9" stroke-width="2"/>
</svg>
