<svg width="128" height="128" viewBox="0 0 128 128" fill="none" xmlns="http://www.w3.org/2000/svg">
<path d="M9.96436 30.9334L13.6572 33.0668C14.2214 32.096 15.0299 31.2899 16.0023 30.7285C16.9746 30.1671 18.077 29.87 19.1998 29.8668V25.6001C17.3288 25.6057 15.4919 26.1009 13.8717 27.0366C12.2514 27.9722 10.9044 29.3157 9.96436 30.9334Z" fill="#FF4B00"/>
<path d="M126.632 100.407L111.119 94.4345L109.097 78.9334H113.067V74.6667H108.539L106.88 61.8667H110.933V57.6001H106.315L105.813 53.7345L111.923 51.699C112.204 51.879 112.523 51.9907 112.855 52.0251C112.926 52.0291 112.998 52.0291 113.069 52.0251C113.37 52.0255 113.668 51.9618 113.944 51.8382C114.219 51.7147 114.464 51.534 114.665 51.3083L122.345 42.6427C122.374 42.6427 122.404 42.6561 122.437 42.6561C122.928 42.6554 123.404 42.4852 123.785 42.1742C124.165 41.8632 124.427 41.4305 124.525 40.9491L126.844 29.6147C127.141 29.4641 127.399 29.2448 127.595 28.975C127.792 28.7012 127.922 28.3844 127.973 28.0506C128.025 27.7169 127.996 27.3757 127.89 27.0553L124.232 16.0835C124.506 15.6557 124.619 15.144 124.549 14.6406C124.48 14.1372 124.233 13.6752 123.853 13.3377L115.2 5.65952C115.223 5.15153 115.063 4.6521 114.751 4.2512C114.438 3.85029 113.992 3.57427 113.494 3.47285L102.161 1.15419C102.01 0.856622 101.791 0.599227 101.521 0.403253C101.247 0.205575 100.93 0.075755 100.596 0.0244795C100.263 -0.0267961 99.9213 0.00193923 99.6008 0.10832L88.6168 3.76779C88.3352 3.58689 88.0152 3.47421 87.6824 3.43872C87.3459 3.40488 87.0063 3.45145 86.6913 3.57458C86.3764 3.69772 86.0952 3.89391 85.8709 4.14699L78.1928 12.8001C77.6842 12.7745 77.1834 12.9328 76.7819 13.2461C76.3804 13.5593 76.105 14.0066 76.0061 14.5062L73.6875 25.8406C73.3899 25.9916 73.1325 26.2113 72.9365 26.4814C72.7389 26.7552 72.6091 27.072 72.5578 27.4057C72.5066 27.7395 72.5353 28.0806 72.6416 28.4011L76.3011 39.3771C76.027 39.805 75.9146 40.3167 75.9841 40.82C76.0536 41.3234 76.3005 41.7854 76.6803 42.123L85.3333 49.8073C85.3106 50.3152 85.47 50.8146 85.7828 51.2155C86.0956 51.6164 86.5412 51.8924 87.0395 51.9939L94.748 53.5699L94.2208 57.6001H89.6V61.2761L64.7939 51.351C64.2835 51.1509 63.7165 51.1509 63.2061 51.351L38.4 61.2763V36.2667C38.4 25.6625 29.8043 17.0667 19.2 17.0667C8.59573 17.0667 0 25.6625 0 36.2667V125.867C0 126.433 0.224761 126.975 0.624839 127.375C1.02492 127.775 1.56754 128 2.13333 128H119.467C120.032 128 120.575 127.775 120.975 127.375C121.375 126.975 121.6 126.433 121.6 125.867V111.573L125.101 112.922C125.345 113.016 125.605 113.065 125.867 113.067C126.432 113.067 126.975 112.842 127.375 112.442C127.775 112.042 128 111.499 128 110.933V102.4C128.001 101.968 127.87 101.547 127.626 101.191C127.382 100.835 127.035 100.562 126.632 100.407ZM102.567 61.8667L104.237 74.6667H101.867L97.9688 65.3115C97.8728 65.1059 97.7448 64.9167 97.5896 64.751L97.9667 61.8667H102.567ZM98.5133 57.6001L98.8605 54.9273C98.9125 54.9721 98.9541 55.023 99.0104 55.0635C99.3755 55.3284 99.8156 55.4697 100.267 55.4667C100.496 55.4667 100.723 55.4294 100.941 55.3574L101.685 55.1083L102.011 57.6001H98.5133ZM104.783 78.9334L105.305 82.9481L103.644 78.9334H104.783ZM105.238 49.4251L103.744 38.0606L109.507 48.0001L105.238 49.4251ZM113.423 46.2721L109.138 38.8481L107.31 35.6843C107.627 35.404 107.926 35.1049 108.207 34.7886L118.4 40.6699L113.423 46.2721ZM120.93 37.2054L110.357 31.1022C110.503 30.6981 110.624 30.2855 110.72 29.8667H122.453L120.93 37.2054ZM122.907 25.6001H110.72C110.631 25.1816 110.516 24.769 110.376 24.3646L120.533 18.4939L122.907 25.6001ZM118.807 14.5667L108.218 20.6782C107.938 20.3616 107.638 20.0623 107.322 19.7822L108.757 17.2947L113.203 9.60005L118.807 14.5667ZM102.4 5.55739L109.739 7.04992L103.635 17.623C103.231 17.4842 102.818 17.3697 102.4 17.2801V5.55739ZM100.267 21.3334C101.387 21.3406 102.484 21.647 103.446 22.2209C104.411 22.7805 105.213 23.5827 105.773 24.5481C106.353 25.5067 106.66 26.606 106.66 27.7267C106.66 28.8474 106.353 29.9468 105.773 30.9054C105.212 31.8717 104.409 32.6749 103.443 33.2355C103.349 33.2907 103.247 33.3094 103.151 33.3606L102.381 27.447C102.315 26.9321 102.064 26.4589 101.674 26.1158C101.285 25.7728 100.784 25.5835 100.265 25.5833C99.7455 25.5835 99.2443 25.7729 98.8547 26.1159C98.4652 26.4589 98.2139 26.9321 98.148 27.447L97.3781 33.3606C97.2821 33.3094 97.1803 33.2907 97.0853 33.2353C96.1196 32.6744 95.3168 31.8713 94.7563 30.9054C94.1757 29.9468 93.8688 28.8474 93.8688 27.7267C93.8688 26.606 94.1757 25.5067 94.7563 24.5481C95.3168 23.5822 96.1196 22.7793 97.0853 22.2187C98.0478 21.6451 99.1462 21.3394 100.267 21.3334ZM98.1333 5.09179V17.2801C97.7147 17.3697 97.3021 17.4841 96.8979 17.6227L91.0272 7.46672L98.1333 5.09179ZM87.1 9.19285L93.2115 19.7822C92.8948 20.0623 92.5956 20.3616 92.3155 20.6782L82.1333 14.7969L87.1 9.19285ZM79.5928 18.2614L90.1656 24.3646C90.0229 24.7687 89.9053 25.1814 89.8136 25.6001H78.0803L79.5928 18.2614ZM77.6261 29.8667H89.8133C89.903 30.2851 90.0178 30.6976 90.1571 31.1022L80 36.9729L77.6261 29.8667ZM81.7261 40.9001L92.3155 34.7886C92.5959 35.105 92.8951 35.4042 93.2115 35.6846L87.3301 45.8667L81.7261 40.9001ZM90.7947 48.4054L91.3261 47.4875L96.7677 38.0606L95.2979 49.3291L90.7947 48.4054ZM93.6635 61.8667L93.5365 62.8502L91.0781 61.8667H93.6635ZM4.26667 36.2667C4.26667 28.0187 10.952 21.3334 19.2 21.3334C27.448 21.3334 34.1333 28.0187 34.1333 36.2667V38.4001H4.26667V36.2667ZM4.26667 42.6667H34.1333V55.4667H4.26667V42.6667ZM4.26667 59.7334H34.1333V62.9825L31.2061 64.151C30.9431 64.2568 30.7037 64.4139 30.502 64.6131C30.3003 64.8124 30.1402 65.0498 30.0312 65.3115L27.0229 72.5334H4.26667V59.7334ZM4.26667 76.8001H25.2437L19.9104 89.6001H4.26667V76.8001ZM4.26667 93.8667H27.7333V106.667H4.26667V93.8667ZM4.26667 123.733V110.933H27.7333V123.733H4.26667ZM61.8667 123.733H54.9677L61.8667 112.234V123.733ZM53.3333 118.166V106.667H60.2323L53.3333 118.166ZM66.1333 123.733V112.234L73.0323 123.733H66.1333ZM74.6667 118.166L67.7677 106.667H74.6667V118.166ZM96 100.267V123.733H78.9333V106.667H83.2V102.4H44.8V106.667H49.0667V123.733H32V92.1854L40.0043 74.1761L64 64.1771L87.9957 74.1761L96 92.1854V100.267ZM91.5501 71.6667C91.3286 71.1684 90.9244 70.774 90.4208 70.5646L64.8208 59.8979C64.5606 59.7901 64.2817 59.7346 64 59.7346C63.7183 59.7346 63.4394 59.7901 63.1792 59.8979L37.5792 70.5646C37.0757 70.774 36.6717 71.1684 36.4501 71.6667L28.48 89.6001H24.5333L33.6261 67.7803L64 55.6313L94.3739 67.7803L103.467 89.6001H99.52L91.5501 71.6667ZM117.333 123.733H100.267V103.418L117.333 110.244V123.733ZM123.733 107.827L100.267 98.8011V94.8395L123.733 103.866V107.827Z" fill="#FF4B00"/>
<path d="M49.0665 85.3334H40.5332C39.9674 85.3334 39.4248 85.5581 39.0247 85.9582C38.6246 86.3583 38.3999 86.9009 38.3999 87.4667V96C38.3999 96.5658 38.6246 97.1084 39.0247 97.5085C39.4248 97.9086 39.9674 98.1334 40.5332 98.1334H49.0665C49.6323 98.1334 50.175 97.9086 50.575 97.5085C50.9751 97.1084 51.1999 96.5658 51.1999 96V87.4667C51.1999 86.9009 50.9751 86.3583 50.575 85.9582C50.175 85.5581 49.6323 85.3334 49.0665 85.3334ZM46.9332 93.8667H42.6665V89.6H46.9332V93.8667ZM78.9332 85.3334C78.3674 85.3334 77.8248 85.5581 77.4247 85.9582C77.0246 86.3583 76.7999 86.9009 76.7999 87.4667V96C76.7999 96.5658 77.0246 97.1084 77.4247 97.5085C77.8248 97.9086 78.3674 98.1334 78.9332 98.1334H87.4665C88.0323 98.1334 88.575 97.9086 88.975 97.5085C89.3751 97.1084 89.5999 96.5658 89.5999 96V87.4667C89.5999 86.9009 89.3751 86.3583 88.975 85.9582C88.575 85.5581 88.0323 85.3334 87.4665 85.3334H78.9332ZM85.3332 93.8667H81.0665V89.6H85.3332V93.8667ZM68.2665 70.4H59.7332C59.1674 70.4 58.6248 70.6248 58.2247 71.0249C57.8246 71.4249 57.5999 71.9676 57.5999 72.5334V81.0667C57.5999 81.6325 57.8246 82.1751 58.2247 82.5752C58.6248 82.9753 59.1674 83.2 59.7332 83.2H68.2665C68.8323 83.2 69.375 82.9753 69.775 82.5752C70.1751 82.1751 70.3999 81.6325 70.3999 81.0667V72.5334C70.3999 71.9676 70.1751 71.4249 69.775 71.0249C69.375 70.6248 68.8323 70.4 68.2665 70.4ZM66.1332 78.9333H61.8665V74.6667H66.1332V78.9333ZM106.667 110.933H110.933V117.333H106.667V110.933ZM8.5332 64H12.7999V68.2667H8.5332V64ZM8.5332 46.9333H12.7999V51.2H8.5332V46.9333ZM8.5332 81.0667H12.7999V85.3334H8.5332V81.0667ZM8.5332 98.1334H12.7999V102.4H8.5332V98.1334ZM8.5332 115.2H12.7999V119.467H8.5332V115.2Z" fill="#FF4B00"/>
</svg>
