<svg xmlns="http://www.w3.org/2000/svg" xml:space="preserve" width="512" height="512" viewBox="0 0 218.1 218.1"><path d="M111.408.94a3.362 3.362 0 0 0-2.36-.94 3.362 3.362 0 0 0-2.36.94c-.478.463-11.705 11.556-11.705 29.847 0 5.251 1.07 10.215 3.181 14.756a3.375 3.375 0 1 0 6.122-2.846c-1.693-3.642-2.552-7.649-2.552-11.91 0-10.474 4.458-18.257 7.315-22.17 2.857 3.913 7.315 11.696 7.315 22.17 0 4.26-.858 8.267-2.552 11.91a3.374 3.374 0 1 0 6.12 2.846c2.111-4.54 3.181-9.505 3.181-14.756 0-18.291-11.227-29.384-11.705-29.847z" fill="#FF4B00"/><path d="M117.626 118.59a3.378 3.378 0 0 0-2.681 3.95 3.378 3.378 0 0 0 3.951 2.679c7.688-1.472 14.511-5.101 19.73-10.494 12.684-13.104 9.006-30.987 8.844-31.742a3.376 3.376 0 0 0-3.299-2.664h-.003c-.665 0-16.446.164-29.165 13.305a39.824 39.824 0 0 0-2.886 3.316V74.81l.008-.038c.481-3.868 1.808-9.718 7.728-15.834 7.653-7.907 16.779-10.258 21.375-10.956.341 4.923-.041 15.011-7.452 22.667-4.308 4.452-9.742 7.332-16.149 8.559a3.378 3.378 0 0 0-2.681 3.95 3.378 3.378 0 0 0 3.951 2.68c7.688-1.472 14.511-5.101 19.73-10.494 12.684-13.104 9.006-30.987 8.844-31.742a3.376 3.376 0 0 0-3.299-2.664h-.003c-.665 0-16.446.164-29.165 13.305-2.474 2.555-4.438 5.211-5.953 8.042-1.515-2.83-3.479-5.487-5.952-8.042-12.719-13.142-28.5-13.305-29.165-13.305h-.004a3.374 3.374 0 0 0-3.299 2.664c-.163.755-3.84 18.637 8.843 31.742 5.219 5.393 12.042 9.022 19.73 10.494a3.378 3.378 0 0 0 3.95-2.68 3.375 3.375 0 0 0-2.68-3.95c-6.408-1.227-11.841-4.107-16.15-8.559-7.41-7.656-7.793-17.744-7.452-22.667 4.596.698 13.722 3.049 21.375 10.956 5.921 6.116 7.246 11.966 7.728 15.834l.007.038v22.131a40.158 40.158 0 0 0-2.885-3.316C90.377 80.483 74.596 80.32 73.931 80.32h-.002a3.374 3.374 0 0 0-3.299 2.664c-.163.755-3.84 18.637 8.843 31.742 5.219 5.394 12.042 9.022 19.73 10.494a3.378 3.378 0 0 0 3.95-2.679 3.375 3.375 0 0 0-2.68-3.95c-6.408-1.227-11.841-4.107-16.15-8.559-7.41-7.656-7.793-17.746-7.452-22.667 4.596.698 13.722 3.049 21.375 10.956 5.921 6.116 7.246 11.965 7.728 15.834l.007.037v23.059a40.158 40.158 0 0 0-2.885-3.316c-12.719-13.142-28.5-13.305-29.165-13.305h-.002a3.374 3.374 0 0 0-3.299 2.664c-.163.755-3.84 18.637 8.843 31.74 5.219 5.394 12.042 9.022 19.73 10.494a3.378 3.378 0 0 0 3.95-2.679 3.373 3.373 0 0 0-2.68-3.949c-6.408-1.228-11.841-4.107-16.15-8.56-7.41-7.656-7.793-17.744-7.452-22.667 4.596.697 13.722 3.049 21.375 10.956 5.921 6.116 7.246 11.966 7.728 15.834l.007.038v60.24a3.371 3.371 0 0 0 3.067 3.359 3.374 3.374 0 0 0 3.067-3.359V154.5l.007-.038c.482-3.868 1.809-9.718 7.729-15.834 7.653-7.907 16.779-10.259 21.375-10.956.341 4.923-.041 15.011-7.452 22.667-4.308 4.452-9.742 7.332-16.149 8.56a3.377 3.377 0 0 0-2.681 3.949 3.378 3.378 0 0 0 3.951 2.679c7.688-1.472 14.511-5.101 19.73-10.494 12.684-13.104 9.006-30.986 8.844-31.74a3.375 3.375 0 0 0-3.299-2.664h-.003c-.665 0-16.446.164-29.165 13.305a39.986 39.986 0 0 0-2.886 3.316v-23.059l.008-.037c.481-3.867 1.808-9.718 7.728-15.833 7.653-7.907 16.779-10.258 21.375-10.956.341 4.923-.041 15.011-7.452 22.667-4.308 4.45-9.743 7.331-16.149 8.558z" fill="#FF4B00"/></svg>