<svg width="128" height="128" viewBox="0 0 128 128" fill="none" xmlns="http://www.w3.org/2000/svg">
<path d="M119.611 17.6694H86.288C85.2548 17.6694 84.4175 18.5067 84.4175 19.5399C84.4175 20.5732 85.2548 21.4104 86.288 21.4104H119.61C122.174 21.4104 124.259 23.4956 124.259 26.059V91.1324H110.575C109.542 91.1324 108.705 91.9696 108.705 93.0029C108.705 94.0361 109.542 94.8734 110.575 94.8734H124.259V96.2949C124.259 98.858 122.174 100.943 119.61 100.943H63.4905C62.4572 100.943 61.62 101.781 61.62 102.814C61.62 103.847 62.4572 104.684 63.4905 104.684H77.2857V116.059C77.2857 116.34 77.3491 116.618 77.4712 116.871C77.5933 117.124 77.7709 117.347 77.9908 117.522L86.286 124.13H41.714L49.4977 117.929H68.4929C69.5262 117.929 70.3634 117.092 70.3634 116.059C70.3634 115.026 69.5262 114.188 68.4929 114.188H50.7143V104.684H55.5192C56.5524 104.684 57.3897 103.847 57.3897 102.814C57.3897 101.781 56.5524 100.943 55.5192 100.943H8.38953C5.82646 100.943 3.74098 98.8583 3.74098 96.2949V94.8734H102.604C103.637 94.8734 104.474 94.0361 104.474 93.0029C104.474 91.9696 103.637 91.1324 102.604 91.1324H3.74098V26.0587C3.74098 23.4956 5.82621 21.4102 8.38953 21.4102H41.09C42.1232 21.4102 42.9605 20.5729 42.9605 19.5397C42.9605 18.5064 42.1232 17.6692 41.09 17.6692H8.38953C3.76343 17.6694 0 21.4329 0 26.0587V96.2947C0 100.921 3.76343 104.684 8.38953 104.684H46.9733V115.157L38.8756 121.608C37.6904 122.552 37.2477 124.086 37.748 125.516C38.2481 126.946 39.5499 127.87 41.065 127.87H86.9355C88.4506 127.87 89.7524 126.946 90.2525 125.516C90.7528 124.086 90.3098 122.552 89.1249 121.608L81.0272 115.157V104.684H119.611C124.237 104.684 128.001 100.921 128.001 96.2947V26.0587C128 21.4329 124.237 17.6694 119.611 17.6694Z" fill="#FF4B00" stroke="#FF4B00"/>
<path d="M49.8127 44.7638C50.0088 44.6158 50.1737 44.4306 50.2981 44.2188C50.4226 44.007 50.5041 43.7728 50.538 43.5295C50.5719 43.2862 50.5576 43.0386 50.4958 42.8009C50.434 42.5631 50.3259 42.3399 50.1779 42.1439C48.8984 40.4502 47.9667 38.5692 47.4028 36.5738L61.8183 44.8653V48.7729C59.647 48.5317 57.5339 47.8751 55.621 46.8353C55.1856 46.6045 54.6768 46.5549 54.205 46.6971C53.7332 46.8393 53.3366 47.1619 53.1012 47.5948C52.8659 48.0278 52.8109 48.5361 52.9482 49.0093C53.0854 49.4826 53.4038 49.8826 53.8343 50.1224C56.2939 51.4589 59.0225 52.2794 61.8183 52.5336V57.9543C61.8183 58.9875 62.6555 59.8248 63.6888 59.8248C64.7221 59.8248 65.5593 58.9875 65.5593 57.9543V52.5308C76.0797 51.5819 84.3525 42.719 84.3525 31.9557C84.3525 22.6177 71.4661 7.28489 65.9252 1.12574C65.355 0.492763 64.5397 0.129639 63.6885 0.129639C62.8373 0.129639 62.0221 0.492764 61.4514 1.12649C55.911 7.28489 43.0248 22.6174 43.0248 31.9557C43.0248 36.487 44.4659 40.7896 47.1926 44.3989C47.8158 45.2232 48.989 45.3868 49.8127 44.7638ZM46.7688 31.8936C46.787 29.7809 47.7634 27.0368 49.3439 23.9901L61.8183 31.1651V40.5497L46.7688 31.8936ZM55.1369 14.8349L61.8183 18.6779V26.8497L51.1849 20.7337C52.3544 18.8116 53.6964 16.8227 55.1369 14.8349ZM76.1927 20.7337L65.5593 26.8497V18.6779L72.2407 14.8352C73.6812 16.8229 75.0232 18.8119 76.1927 20.7337ZM80.609 31.8936L65.5593 40.5497V31.1651L78.0337 23.9901C79.6144 27.037 80.5908 29.7812 80.609 31.8936ZM65.5593 48.7729V44.8653L79.9641 36.5803C78.1115 43.0896 72.4552 48.0107 65.5593 48.7729ZM69.9816 11.819L65.5593 14.3623V6.38406C67.0776 8.15925 68.5522 9.97143 69.9816 11.819ZM61.8183 6.38431V14.3626L57.396 11.819C58.8253 9.97147 60.2999 8.15938 61.8183 6.38431ZM30.2404 29.4021H18.6755C16.0322 29.4021 13.8818 31.5524 13.8818 34.1955V47.156C13.8818 49.7992 16.0322 51.9495 18.6755 51.9495H30.2404C32.8835 51.9495 35.0339 49.7992 35.0339 47.156V34.1955C35.0339 31.5524 32.8835 29.4021 30.2404 29.4021ZM31.2929 47.1558C31.2925 47.4348 31.1816 47.7023 30.9842 47.8996C30.7869 48.0969 30.5194 48.2079 30.2404 48.2083H18.6755C18.3965 48.2079 18.1289 48.0969 17.9316 47.8997C17.7343 47.7024 17.6232 47.4348 17.6228 47.1558V34.1953C17.6232 33.9162 17.7343 33.6487 17.9316 33.4514C18.1289 33.2541 18.3965 33.1432 18.6755 33.1428H30.2404C30.5194 33.1432 30.7869 33.2541 30.9842 33.4514C31.1816 33.6487 31.2925 33.9163 31.2929 34.1953V47.1558ZM94.0835 35.3218H116.133C117.167 35.3218 118.004 34.4846 118.004 33.4513C118.004 32.4181 117.167 31.5808 116.133 31.5808H94.0835C93.0503 31.5808 92.2131 32.4181 92.2131 33.4513C92.2131 34.4846 93.0505 35.3218 94.0835 35.3218ZM94.0835 43.8852H116.133C117.167 43.8852 118.004 43.0479 118.004 42.0147C118.004 40.9814 117.167 40.1442 116.133 40.1442H94.0835C93.0503 40.1442 92.2131 40.9814 92.2131 42.0147C92.2131 43.0479 93.0505 43.8852 94.0835 43.8852ZM94.0835 52.4485H116.133C117.167 52.4485 118.004 51.6113 118.004 50.578C118.004 49.5448 117.167 48.7076 116.133 48.7076H94.0835C93.0503 48.7076 92.2131 49.5448 92.2131 50.578C92.2131 51.6113 93.0505 52.4485 94.0835 52.4485ZM40.4386 72.2705C43.6523 72.2705 46.2668 69.6561 46.2668 66.4423C46.2668 63.2288 43.6523 60.6144 40.4386 60.6144C37.2251 60.6144 34.6106 63.2288 34.6106 66.4423C34.6104 69.6561 37.2251 72.2705 40.4386 72.2705ZM40.4386 64.3553C41.5896 64.3553 42.5258 65.2916 42.5258 66.4423C42.5258 67.5933 41.5896 68.5295 40.4386 68.5295C39.2879 68.5295 38.3516 67.5933 38.3516 66.4423C38.3514 65.2916 39.2876 64.3553 40.4386 64.3553ZM21.1296 64.5718C20.0964 64.5718 19.2591 65.4091 19.2591 66.4423C19.2591 67.4756 20.0964 68.3128 21.1296 68.3128H29.8132C30.8464 68.3128 31.6837 67.4756 31.6837 66.4423C31.6837 65.4091 30.8464 64.5718 29.8132 64.5718H21.1296ZM49.489 66.4423C49.489 67.4756 50.3263 68.3128 51.3595 68.3128H106.589C107.623 68.3128 108.46 67.4756 108.46 66.4423C108.46 65.4091 107.623 64.5718 106.589 64.5718H51.3595C50.8634 64.5718 50.3877 64.7689 50.0369 65.1197C49.6861 65.4705 49.489 65.9462 49.489 66.4423ZM81.452 79.7226C81.452 82.9363 84.0664 85.5508 87.2802 85.5508C90.4939 85.5508 93.1084 82.9363 93.1084 79.7226C93.1084 76.5088 90.4939 73.8944 87.2802 73.8944C84.0664 73.8944 81.452 76.5088 81.452 79.7226ZM89.3674 79.7226C89.3674 80.8735 88.4312 81.8098 87.2802 81.8098C86.1292 81.8098 85.193 80.8735 85.193 79.7226C85.193 78.5716 86.1292 77.6353 87.2802 77.6353C88.4312 77.6353 89.3674 78.5716 89.3674 79.7226ZM106.589 77.8521H97.9058C96.8726 77.8521 96.0353 78.6893 96.0353 79.7226C96.0353 80.7558 96.8726 81.593 97.9058 81.593H106.589C107.623 81.593 108.46 80.7558 108.46 79.7226C108.46 78.6893 107.622 77.8521 106.589 77.8521ZM21.1296 81.593H76.3595C77.3928 81.593 78.23 80.7558 78.23 79.7226C78.23 78.6893 77.3928 77.8521 76.3595 77.8521H21.1296C20.0964 77.8521 19.2591 78.6893 19.2591 79.7226C19.2591 80.7558 20.0964 81.593 21.1296 81.593Z" fill="#FF4B00" stroke="#FF4B00"/>
</svg>
